<svg width="60" height="16" viewBox="0 0 60 16" fill="none" xmlns="http://www.w3.org/2000/svg">
<g clip-path="url(#clip0_120_77)">
<g filter="url(#filter0_d_120_77)">
<path d="M0 7.99997C1.46447 9.56207 1.60934 11.9509 3.75 12C6.19014 12.0559 7.5 6.99997 7.5 6.99997C7.5 6.99997 9.16499 3.48738 11.25 2.99997C14.9577 2.13325 11.2101 11.633 15 12C19.1514 12.402 14.591 2.31401 18.75 1.99997C20.2613 1.88585 21.1796 2.2559 22.5 2.99997C24.6264 4.19822 23.9484 7.18763 26.25 7.99997C27.631 8.48738 28.6135 7.52863 30 7.99997C32.0273 8.68913 31.6134 11.8586 33.75 12C36.5071 12.1823 34.7429 5.8176 37.5 5.99997C39.6365 6.1413 39.1093 9.95094 41.25 9.99997C43.6901 10.0559 42.5737 5.26527 45 4.99997C48.0828 4.66288 45.6488 12 48.75 12C51.8512 12 49.3988 5.00316 52.5 4.99997C54.1597 4.99827 54.594 7.11123 56.25 6.99997C58.3864 6.85644 59.9944 5.14118 60 2.99997" stroke="#39E75F"/>
</g>
</g>
<defs>
<filter id="filter0_d_120_77" x="-2.36475" y="0.479675" width="64.8647" height="15.0319" filterUnits="userSpaceOnUse" color-interpolation-filters="sRGB">
<feFlood flood-opacity="0" result="BackgroundImageFix"/>
<feColorMatrix in="SourceAlpha" type="matrix" values="0 0 0 0 0 0 0 0 0 0 0 0 0 0 0 0 0 0 127 0" result="hardAlpha"/>
<feOffset dy="1"/>
<feGaussianBlur stdDeviation="1"/>
<feComposite in2="hardAlpha" operator="out"/>
<feColorMatrix type="matrix" values="0 0 0 0 0.223529 0 0 0 0 0.905882 0 0 0 0 0.372549 0 0 0 1 0"/>
<feBlend mode="normal" in2="BackgroundImageFix" result="effect1_dropShadow_120_77"/>
<feBlend mode="normal" in="SourceGraphic" in2="effect1_dropShadow_120_77" result="shape"/>
</filter>
<clipPath id="clip0_120_77">
<rect width="60" height="16" fill="white"/>
</clipPath>
</defs>
</svg>
