<svg width="60" height="16" viewBox="0 0 60 16" fill="none" xmlns="http://www.w3.org/2000/svg">
<g clip-path="url(#clip0_120_65)">
<path d="M0 13.0231L1.5 5.02308L4.5 13.5L6 9L8 12.5L10 7L12 11L13.5 9.02308L15.5 13.0231L18.5 4.5L21 10.5231L22.5 7L24 9.02308C25.1667 6.52308 27 2 27 2C27 2 28.1667 6.85641 28.5 9.02308L30.5 5.02308L32 9.02308L34 5.02308L36.5 11.5231L38.5 7.02308L41 11.5231L44.5 2.52307L47.5 12.5231L49.5 7.02308L52 12.5231L53 7.52307L55.5 11.5231L58.5 2.52307L60 6.52307" stroke="#39E75F"/>
</g>
<defs>
<clipPath id="clip0_120_65">
<rect width="60" height="16" fill="white"/>
</clipPath>
</defs>
</svg>
