<svg width="235" height="235" viewBox="0 0 235 235" fill="none" xmlns="http://www.w3.org/2000/svg">
<rect x="5" y="5" width="225" height="225" rx="112.5" stroke="#6366F1" stroke-width="10"/>
<path d="M159 165L83.2688 165C82.5541 165 82.0702 164.272 82.3467 163.613L92.2133 140.1C92.3692 139.728 92.7327 139.487 93.1354 139.487L159 139.487C159.552 139.487 160 139.934 160 140.487L160 164C160 164.552 159.552 165 159 165Z" fill="#6366F1"/>
<path d="M133.647 106.743L133.647 130.257C133.647 130.809 133.199 131.257 132.647 131.257L103.822 131.257C103.429 131.257 103.072 131.026 102.911 130.668L92.285 107.155C91.9859 106.493 92.47 105.743 93.1963 105.743L132.647 105.743C133.199 105.743 133.647 106.191 133.647 106.743Z" fill="#6366F1"/>
<path d="M159 97.5133L88.1749 97.5133C87.7819 97.5133 87.4254 97.2831 87.2636 96.9251L76.638 73.4118C76.3389 72.7499 76.8229 72 77.5493 72L159 72C159.552 72 160 72.4477 160 73L160 96.5133C160 97.0655 159.552 97.5133 159 97.5133Z" fill="#6366F1"/>
</svg>
