<svg width="125" height="135" viewBox="0 0 125 135" fill="none" xmlns="http://www.w3.org/2000/svg">
<g filter="url(#filter0_d_138_13)">
<rect x="13.5" y="18.5" width="98" height="98" rx="49" stroke="#6366F1" stroke-width="7"/>
<path d="M80.4894 88.7234L48.0373 88.7234C47.3226 88.7234 46.8386 87.9954 47.1152 87.3364L51.0594 77.9369C51.2153 77.5655 51.5787 77.3238 51.9815 77.3238L80.4894 77.3238C81.0417 77.3238 81.4894 77.7716 81.4894 78.3238L81.4894 87.7234C81.4894 88.2757 81.0417 88.7234 80.4894 88.7234Z" fill="#6366F1"/>
<path d="M69.7147 63.247L69.7147 72.6466C69.7147 73.1988 69.2669 73.6466 68.7147 73.6466L56.7456 73.6466C56.3527 73.6466 55.9961 73.4164 55.8343 73.0584L51.5867 63.6588C51.2876 62.9969 51.7716 62.247 52.498 62.247L68.7147 62.247C69.2669 62.247 69.7147 62.6947 69.7147 63.247Z" fill="#6366F1"/>
<path d="M80.4894 58.5697L49.7544 58.5697C49.3614 58.5697 49.0049 58.3396 48.8431 57.9815L44.5955 48.582C44.2963 47.9201 44.7804 47.1702 45.5067 47.1702L80.4894 47.1702C81.0417 47.1702 81.4894 47.6179 81.4894 48.1702L81.4894 57.5697C81.4894 58.122 81.0417 58.5697 80.4894 58.5697Z" fill="#6366F1"/>
<rect x="80.5" y="11.5" width="27" height="27" rx="13.5" fill="#6366F1" stroke="#6366F1" stroke-width="3"/>
<rect x="20.5" y="96.5" width="27" height="27" rx="13.5" fill="#6366F1" stroke="#6366F1" stroke-width="3"/>
</g>
<defs>
<filter id="filter0_d_138_13" x="0" y="0" width="125" height="135" filterUnits="userSpaceOnUse" color-interpolation-filters="sRGB">
<feFlood flood-opacity="0" result="BackgroundImageFix"/>
<feColorMatrix in="SourceAlpha" type="matrix" values="0 0 0 0 0 0 0 0 0 0 0 0 0 0 0 0 0 0 127 0" result="hardAlpha"/>
<feOffset/>
<feGaussianBlur stdDeviation="5"/>
<feComposite in2="hardAlpha" operator="out"/>
<feColorMatrix type="matrix" values="0 0 0 0 0.388235 0 0 0 0 0.4 0 0 0 0 0.945098 0 0 0 1 0"/>
<feBlend mode="normal" in2="BackgroundImageFix" result="effect1_dropShadow_138_13"/>
<feBlend mode="normal" in="SourceGraphic" in2="effect1_dropShadow_138_13" result="shape"/>
</filter>
</defs>
</svg>
