<svg width="354" height="135" viewBox="0 0 354 135" fill="none" xmlns="http://www.w3.org/2000/svg">
<g filter="url(#filter0_d_137_10)">
<rect x="13.5" y="18.5" width="98" height="98" rx="49" stroke="#6366F1" stroke-width="7"/>
<path d="M80.4894 88.7234L48.0373 88.7234C47.3226 88.7234 46.8386 87.9954 47.1151 87.3364L51.0594 77.9369C51.2152 77.5655 51.5787 77.3238 51.9815 77.3238L80.4894 77.3238C81.0416 77.3238 81.4894 77.7716 81.4894 78.3238L81.4894 87.7234C81.4894 88.2757 81.0416 88.7234 80.4894 88.7234Z" fill="#6366F1"/>
<path d="M69.7146 63.247L69.7146 72.6466C69.7146 73.1988 69.2669 73.6466 68.7146 73.6466L56.7456 73.6466C56.3526 73.6466 55.9961 73.4164 55.8343 73.0584L51.5867 63.6588C51.2876 62.9969 51.7716 62.247 52.4979 62.247L68.7146 62.247C69.2669 62.247 69.7146 62.6947 69.7146 63.247Z" fill="#6366F1"/>
<path d="M80.4894 58.5697L49.7544 58.5697C49.3614 58.5697 49.0049 58.3396 48.8431 57.9815L44.5954 48.582C44.2963 47.9201 44.7804 47.1702 45.5067 47.1702L80.4894 47.1702C81.0416 47.1702 81.4894 47.6179 81.4894 48.1702L81.4894 57.5697C81.4894 58.122 81.0416 58.5697 80.4894 58.5697Z" fill="#6366F1"/>
<rect x="80.5" y="11.5" width="27" height="27" rx="13.5" fill="#6366F1" stroke="#6366F1" stroke-width="3"/>
<rect x="20.5" y="96.5" width="27" height="27" rx="13.5" fill="#6366F1" stroke="#6366F1" stroke-width="3"/>
</g>
<g filter="url(#filter1_d_137_10)">
<path d="M143.314 49.79V64.07H160.114V70.58H143.314V85.49H162.214V92H135.334V43.28H162.214V49.79H143.314ZM198.503 85.21C201.443 85.21 204.01 84.6033 206.203 83.39C208.443 82.13 210.193 80.2867 211.453 77.86H221.043C219.223 82.5267 216.306 86.12 212.293 88.64C208.28 91.16 203.683 92.42 198.503 92.42C193.043 92.42 188.19 90.95 183.943 88.01C179.696 85.0233 176.733 81.0567 175.053 76.11H168.613V70.65H173.793C173.7 69.3433 173.653 68.3167 173.653 67.57C173.653 66.8233 173.7 65.7967 173.793 64.49H168.613V59.03H175.053C176.733 54.0833 179.696 50.14 183.943 47.2C188.19 44.2133 193.043 42.72 198.503 42.72C203.636 42.72 208.21 44.0033 212.223 46.57C216.283 49.09 219.223 52.6833 221.043 57.35H211.453C210.193 54.9233 208.443 53.1033 206.203 51.89C204.01 50.63 201.443 50 198.503 50C195.096 50 192.086 50.7933 189.473 52.38C186.906 53.9667 184.946 56.1833 183.593 59.03H198.503V64.49H182.053C181.913 65.47 181.843 66.4967 181.843 67.57C181.843 68.6433 181.913 69.67 182.053 70.65H198.503V76.11H183.593C184.946 79.0033 186.906 81.2433 189.473 82.83C192.086 84.4167 195.096 85.21 198.503 85.21Z" fill="#6366F1"/>
</g>
<g filter="url(#filter2_d_137_10)">
<path d="M225.944 72.54C225.944 68.6667 226.737 65.2367 228.324 62.25C229.957 59.2633 232.15 56.9533 234.904 55.32C237.704 53.64 240.784 52.8 244.144 52.8C247.177 52.8 249.814 53.4067 252.054 54.62C254.34 55.7867 256.16 57.2567 257.514 59.03V53.43H265.564V92H257.514V86.26C256.16 88.08 254.317 89.5967 251.984 90.81C249.65 92.0233 246.99 92.63 244.004 92.63C240.69 92.63 237.657 91.79 234.904 90.11C232.15 88.3833 229.957 86.0033 228.324 82.97C226.737 79.89 225.944 76.4133 225.944 72.54ZM257.514 72.68C257.514 70.02 256.954 67.71 255.834 65.75C254.76 63.79 253.337 62.2967 251.564 61.27C249.79 60.2433 247.877 59.73 245.824 59.73C243.77 59.73 241.857 60.2433 240.084 61.27C238.31 62.25 236.864 63.72 235.744 65.68C234.67 67.5933 234.134 69.88 234.134 72.54C234.134 75.2 234.67 77.5333 235.744 79.54C236.864 81.5467 238.31 83.0867 240.084 84.16C241.904 85.1867 243.817 85.7 245.824 85.7C247.877 85.7 249.79 85.1867 251.564 84.16C253.337 83.1333 254.76 81.64 255.834 79.68C256.954 77.6733 257.514 75.34 257.514 72.68ZM290.045 92.63C287.012 92.63 284.282 92.0933 281.855 91.02C279.475 89.9 277.585 88.4067 276.185 86.54C274.785 84.6267 274.038 82.5033 273.945 80.17H282.205C282.345 81.8033 283.115 83.18 284.515 84.3C285.962 85.3733 287.758 85.91 289.905 85.91C292.145 85.91 293.872 85.49 295.085 84.65C296.345 83.7633 296.975 82.6433 296.975 81.29C296.975 79.8433 296.275 78.77 294.875 78.07C293.522 77.37 291.352 76.6 288.365 75.76C285.472 74.9667 283.115 74.1967 281.295 73.45C279.475 72.7033 277.888 71.56 276.535 70.02C275.228 68.48 274.575 66.45 274.575 63.93C274.575 61.8767 275.182 60.01 276.395 58.33C277.608 56.6033 279.335 55.25 281.575 54.27C283.862 53.29 286.475 52.8 289.415 52.8C293.802 52.8 297.325 53.92 299.985 56.16C302.692 58.3533 304.138 61.3633 304.325 65.19H296.345C296.205 63.4633 295.505 62.0867 294.245 61.06C292.985 60.0333 291.282 59.52 289.135 59.52C287.035 59.52 285.425 59.9167 284.305 60.71C283.185 61.5033 282.625 62.5533 282.625 63.86C282.625 64.8867 282.998 65.75 283.745 66.45C284.492 67.15 285.402 67.71 286.475 68.13C287.548 68.5033 289.135 68.9933 291.235 69.6C294.035 70.3467 296.322 71.1167 298.095 71.91C299.915 72.6567 301.478 73.7767 302.785 75.27C304.092 76.7633 304.768 78.7467 304.815 81.22C304.815 83.4133 304.208 85.3733 302.995 87.1C301.782 88.8267 300.055 90.18 297.815 91.16C295.622 92.14 293.032 92.63 290.045 92.63ZM333.388 52.8C336.328 52.8 338.941 53.43 341.228 54.69C343.561 55.95 345.381 57.8167 346.688 60.29C348.041 62.7633 348.718 65.75 348.718 69.25V92H340.808V70.44C340.808 66.9867 339.944 64.35 338.218 62.53C336.491 60.6633 334.134 59.73 331.148 59.73C328.161 59.73 325.781 60.6633 324.008 62.53C322.281 64.35 321.418 66.9867 321.418 70.44V92H313.438V40.2H321.418V57.91C322.771 56.2767 324.474 55.0167 326.528 54.13C328.628 53.2433 330.914 52.8 333.388 52.8Z" fill="white"/>
</g>
<defs>
<filter id="filter0_d_137_10" x="0" y="0" width="125" height="135" filterUnits="userSpaceOnUse" color-interpolation-filters="sRGB">
<feFlood flood-opacity="0" result="BackgroundImageFix"/>
<feColorMatrix in="SourceAlpha" type="matrix" values="0 0 0 0 0 0 0 0 0 0 0 0 0 0 0 0 0 0 127 0" result="hardAlpha"/>
<feOffset/>
<feGaussianBlur stdDeviation="5"/>
<feComposite in2="hardAlpha" operator="out"/>
<feColorMatrix type="matrix" values="0 0 0 0 0.388235 0 0 0 0 0.4 0 0 0 0 0.945098 0 0 0 1 0"/>
<feBlend mode="normal" in2="BackgroundImageFix" result="effect1_dropShadow_137_10"/>
<feBlend mode="normal" in="SourceGraphic" in2="effect1_dropShadow_137_10" result="shape"/>
</filter>
<filter id="filter1_d_137_10" x="130.334" y="37.72" width="95.709" height="59.7001" filterUnits="userSpaceOnUse" color-interpolation-filters="sRGB">
<feFlood flood-opacity="0" result="BackgroundImageFix"/>
<feColorMatrix in="SourceAlpha" type="matrix" values="0 0 0 0 0 0 0 0 0 0 0 0 0 0 0 0 0 0 127 0" result="hardAlpha"/>
<feOffset/>
<feGaussianBlur stdDeviation="2.5"/>
<feComposite in2="hardAlpha" operator="out"/>
<feColorMatrix type="matrix" values="0 0 0 0 0.388235 0 0 0 0 0.4 0 0 0 0 0.945098 0 0 0 1 0"/>
<feBlend mode="normal" in2="BackgroundImageFix" result="effect1_dropShadow_137_10"/>
<feBlend mode="normal" in="SourceGraphic" in2="effect1_dropShadow_137_10" result="shape"/>
</filter>
<filter id="filter2_d_137_10" x="220.944" y="35.2" width="132.774" height="62.4301" filterUnits="userSpaceOnUse" color-interpolation-filters="sRGB">
<feFlood flood-opacity="0" result="BackgroundImageFix"/>
<feColorMatrix in="SourceAlpha" type="matrix" values="0 0 0 0 0 0 0 0 0 0 0 0 0 0 0 0 0 0 127 0" result="hardAlpha"/>
<feOffset/>
<feGaussianBlur stdDeviation="2.5"/>
<feComposite in2="hardAlpha" operator="out"/>
<feColorMatrix type="matrix" values="0 0 0 0 1 0 0 0 0 1 0 0 0 0 1 0 0 0 0.25 0"/>
<feBlend mode="normal" in2="BackgroundImageFix" result="effect1_dropShadow_137_10"/>
<feBlend mode="normal" in="SourceGraphic" in2="effect1_dropShadow_137_10" result="shape"/>
</filter>
</defs>
</svg>
