<svg width="566" height="197" viewBox="0 0 566 197" fill="#6366f1" xmlns="http://www.w3.org/2000/svg">
<path d="M266.5 134V126.6H231.1V103.6H265.8V96.2H231.1V74.7H266.5V67.3H222.8V134H266.5ZM313.534 135.2C325.334 135.2 333.334 129.6 338.934 121.9L331.934 118.1C328.134 123.7 321.134 127.8 313.534 127.8C302.134 127.8 292.834 120.9 289.334 110.3H319.534V105.1H288.134C287.934 103.7 287.834 102.2 287.834 100.7C287.834 99.1 287.934 97.6 288.134 96.1H319.534V90.8H289.334C292.934 80.3 302.134 73.6 313.534 73.6C321.134 73.6 328.134 77.6 331.934 83.3L338.834 79.4C333.534 71.8 325.334 66.2 313.534 66.2C297.634 66.2 284.534 75.8 280.534 90.8H275.034V96.1H279.434C279.334 97.6 279.234 99.2 279.234 100.7C279.234 102.2 279.334 103.7 279.434 105.1H275.034V110.3H280.434C284.334 125.5 297.434 135.2 313.534 135.2ZM386.665 134V100.8C386.665 89.1 378.265 84.5 367.965 84.5C360.065 84.5 353.865 87.1 348.665 92.5L352.165 97.7C356.465 93 361.165 91 366.965 91C373.965 91 379.165 94.7 379.165 101.1V109.8C375.265 105.4 369.765 103.3 363.165 103.3C354.965 103.3 346.365 108.3 346.365 119.2C346.365 129.7 355.065 135.2 363.165 135.2C369.665 135.2 375.265 132.9 379.165 128.5V134H386.665ZM365.965 129.8C358.865 129.8 353.965 125.4 353.965 119.2C353.965 113.1 358.865 108.7 365.965 108.7C371.165 108.7 376.265 110.7 379.165 114.6V123.8C376.265 127.8 371.165 129.8 365.965 129.8ZM417.197 135.2C429.597 135.2 436.097 128.7 436.097 120.6C436.097 101.8 406.197 108.7 406.197 98.2C406.197 93.9 410.297 90.6 416.897 90.6C423.197 90.6 428.397 93.2 431.297 96.7L434.797 91.5C430.997 87.6 425.197 84.5 416.897 84.5C405.397 84.5 398.997 90.8 398.997 98.4C398.997 116.3 428.897 109.1 428.897 120.8C428.897 125.6 424.797 129.1 417.397 129.1C410.797 129.1 404.697 125.9 401.497 122.2L397.697 127.6C402.597 132.7 409.197 135.2 417.197 135.2ZM488.481 134V99.9C488.481 89.4 483.181 84.5 473.081 84.5C465.781 84.5 459.181 88.6 455.881 92.7V67.3H448.381V134H455.881V98.7C458.681 94.8 464.281 91.2 470.081 91.2C476.681 91.2 480.981 93.6 480.981 102.2V134H488.481Z" fill=""/>
<path d="M171 155L78.5037 155C77.7892 155 77.3052 154.272 77.5815 153.613L89.7428 124.613C89.8986 124.242 90.2621 124 90.665 124L171 124C171.552 124 172 124.448 172 125L172 154C172 154.552 171.552 155 171 155Z"/>
<path d="M140 84L140 113C140 113.552 139.552 114 139 114L103.646 114C103.253 114 102.896 113.77 102.734 113.412L89.6375 84.4116C89.3386 83.7497 89.8226 83 90.5488 83L139 83C139.552 83 140 83.4477 140 84Z"/>
<path d="M171 73L84.6456 73C84.2526 73 83.896 72.7697 83.7343 72.4115L70.6375 43.4115C70.3386 42.7497 70.8226 42 71.5489 42L171 42C171.552 42 172 42.4477 172 43L172 72C172 72.5522 171.552 73 171 73Z"/>
</svg>
